<?xml version="1.0" encoding="UTF-8" standalone="no"?>
<!DOCTYPE svg PUBLIC "-//W3C//DTD SVG 20010904//EN"
"http://www.w3.org/TR/2001/REC-SVG-20010904/DTD/svg10.dtd">
<!-- Created with Sodipodi ("http://www.sodipodi.com/") -->
<svg
   xmlns="http://www.w3.org/2000/svg"
   xmlns:xlink="http://www.w3.org/1999/xlink"
   version="1.0"
   x="0.00000000"
   y="0.00000000"
   width="744.09448"
   height="1052.3622"
   id="svg1"
   xmlns:sodipodi="http://sodipodi.sourceforge.net/DTD/sodipodi-0.dtd"
   sodipodi:version="0.34"
   sodipodi:docname="easexml.svg">
  <sodipodi:namedview
     id="base" />
  <defs
     id="defs3">
    <linearGradient
       id="linearGradient1029">
      <stop
         style="stop-color:#e09494;stop-opacity:1.0000000;"
         offset="0.00000000"
         id="stop1030" />
      <stop
         style="stop-color:#ff0000;stop-opacity:1.0000000;"
         offset="1.0000000"
         id="stop1031" />
    </linearGradient>
    <linearGradient
       id="linearGradient1012">
      <stop
         style="stop-color:#000000;stop-opacity:0.24793388;"
         offset="0.00000000"
         id="stop1013" />
      <stop
         style="stop-color:#000000;stop-opacity:0.00000000;"
         offset="1.0000000"
         id="stop1014" />
    </linearGradient>
    <linearGradient
       id="linearGradient947">
      <stop
         style="stop-color:#000000;stop-opacity:0.51239669;"
         offset="0.00000000"
         id="stop948" />
      <stop
         style="stop-color:#000000;stop-opacity:0.00000000;"
         offset="1.0000000"
         id="stop950" />
    </linearGradient>
    <linearGradient
       id="linearGradient918">
      <stop
         style="stop-color:#ffffff;stop-opacity:1.0000000;"
         offset="0.00000000"
         id="stop919" />
      <stop
         style="stop-color:#ffffff;stop-opacity:1.0000000;"
         offset="0.73930234"
         id="stop921" />
      <stop
         style="stop-color:#000000;stop-opacity:1.0000000;"
         offset="1.0000000"
         id="stop920" />
    </linearGradient>
    <linearGradient
       id="linearGradient901">
      <stop
         style="stop-color:#000000;stop-opacity:1.0000000;"
         offset="0.00000000"
         id="stop902" />
      <stop
         style="stop-color:#000000;stop-opacity:0.00000000;"
         offset="1.0000000"
         id="stop903" />
    </linearGradient>
    <linearGradient
       id="linearGradient897">
      <stop
         style="stop-color:#000000;stop-opacity:1.0000000;"
         offset="0.00000000"
         id="stop898" />
      <stop
         style="stop-color:#ffffff;stop-opacity:1.0000000;"
         offset="1.0000000"
         id="stop899" />
    </linearGradient>
    <radialGradient
       cx="0.48484850"
       cy="0.48437494"
       r="0.61636013"
       fx="0.49494946"
       fy="0.47656238"
       id="radialGradient900"
       xlink:href="#linearGradient918" />
    <linearGradient
       id="linearGradient927"
       xlink:href="#linearGradient1029" />
    <radialGradient
       cx="0.85074627"
       cy="0.21093750"
       r="0.79753792"
       fx="0.82835823"
       fy="0.22656250"
       id="radialGradient928"
       xlink:href="#linearGradient947" />
    <radialGradient
       cx="0.43295118"
       cy="0.73246580"
       r="0.68202937"
       fx="0.44836187"
       fy="0.71148849"
       id="radialGradient930"
       xlink:href="#linearGradient947" />
    <radialGradient
       cx="0.43209878"
       cy="0.41406250"
       r="0.55604970"
       fx="0.41975313"
       fy="0.39062500"
       id="radialGradient937"
       xlink:href="#linearGradient1012" />
    <radialGradient
       cx="0.078189299"
       cy="0.31250000"
       r="0.67941672"
       fx="0.078189299"
       fy="0.28906250"
       id="radialGradient943"
       xlink:href="#linearGradient947" />
    <radialGradient
       cx="1.0781893"
       cy="0.00000000"
       r="0.65994030"
       fx="1.0781893"
       fy="0.015625000"
       id="radialGradient949"
       xlink:href="#linearGradient947" />
    <radialGradient
       cx="0.33793104"
       cy="0.80468750"
       r="1.2425834"
       fx="0.33793107"
       fy="0.80468750"
       id="radialGradient1028"
       xlink:href="#linearGradient1029" />
    <radialGradient
       cx="0.92413795"
       cy="-0.78125000"
       r="1.2425834"
       fx="0.93793154"
       fy="-0.78125000"
       id="radialGradient1033"
       xlink:href="#linearGradient901" />
    <radialGradient
       cx="1.1428572"
       cy="0.26562500"
       r="0.80003816"
       fx="1.1571429"
       fy="0.25781250"
       id="radialGradient1035"
       xlink:href="#linearGradient901" />
    <radialGradient
       cx="-0.33333334"
       cy="0.17968750"
       r="0.76631594"
       fx="-0.33333331"
       fy="0.18750000"
       id="radialGradient1037"
       xlink:href="#linearGradient947" />
    <radialGradient
       cx="0.46706587"
       cy="0.78125000"
       r="0.72471935"
       fx="0.46706587"
       fy="0.76562500"
       id="radialGradient1044"
       xlink:href="#linearGradient947" />
    <radialGradient
       cx="0.67235494"
       cy="0.57031238"
       r="0.64298910"
       fx="0.67576790"
       fy="0.58593738"
       id="radialGradient1147"
       xlink:href="#linearGradient947" />
    <radialGradient
       cx="0.46938777"
       cy="-0.17968750"
       r="1.0308787"
       fx="0.43877548"
       fy="-0.20312500"
       id="radialGradient1150"
       xlink:href="#linearGradient947" />
    <radialGradient
       cx="0.32362458"
       cy="0.98113209"
       r="0.72480977"
       fx="0.31715208"
       fy="0.99056602"
       id="radialGradient1159"
       xlink:href="#linearGradient1012" />
    <defs
       id="defs1285">
      <linearGradient
         id="linearGradient1038">
        <stop
           style="stop-color:#ffffff;stop-opacity:1.0000000;"
           offset="0.00000000"
           id="stop1039" />
        <stop
           style="stop-color:#454545;stop-opacity:1.0000000;"
           offset="0.50000000"
           id="stop1041" />
        <stop
           style="stop-color:#000000;stop-opacity:1.0000000;"
           offset="1.0000000"
           id="stop1040" />
      </linearGradient>
      <linearGradient
         id="linearGradient1290">
        <stop
           style="stop-color:#000000;stop-opacity:1.0000000;"
           offset="0.00000000"
           id="stop1291" />
        <stop
           style="stop-color:#000000;stop-opacity:0.00000000;"
           offset="1.0000000"
           id="stop1292" />
      </linearGradient>
      <linearGradient
         id="linearGradient1293">
        <stop
           style="stop-color:#000000;stop-opacity:1.0000000;"
           offset="0.00000000"
           id="stop1294" />
        <stop
           style="stop-color:#ffffff;stop-opacity:1.0000000;"
           offset="1.0000000"
           id="stop1295" />
      </linearGradient>
      <radialGradient
         cx="0.59937894"
         cy="0.40404016"
         r="0.54674971"
         fx="0.68633544"
         fy="0.27272716"
         id="radialGradient1296"
         xlink:href="#linearGradient1038" />
      <linearGradient
         id="linearGradient1297"
         xlink:href="#linearGradient901" />
      <radialGradient
         cx="0.23121387"
         cy="0.88215488"
         r="0.59257168"
         fx="0.23988438"
         fy="0.87878793"
         id="radialGradient1298"
         xlink:href="#linearGradient901" />
      <radialGradient
         cx="0.46753246"
         cy="0.57575756"
         r="0.50000000"
         fx="0.46753246"
         fy="0.58080816"
         id="radialGradient1299"
         xlink:href="#linearGradient901" />
      <radialGradient
         cx="-0.32653061"
         cy="0.61616164"
         r="1.0510257"
         fx="-0.33673468"
         fy="0.61447817"
         id="radialGradient1300"
         xlink:href="#linearGradient901" />
      <radialGradient
         cx="0.24705882"
         cy="0.38720539"
         r="0.52967936"
         fx="0.23529412"
         fy="0.38047144"
         id="radialGradient1301"
         xlink:href="#linearGradient901" />
      <radialGradient
         cx="-0.14634146"
         cy="0.51178449"
         r="0.93902439"
         fx="-0.12804876"
         fy="0.51178449"
         id="radialGradient1302"
         xlink:href="#linearGradient901" />
      <radialGradient
         cx="0.17272727"
         cy="0.46127945"
         r="0.50001132"
         fx="0.17272727"
         fy="0.45454568"
         id="radialGradient1025"
         xlink:href="#linearGradient901" />
      <radialGradient
         cx="0.19196428"
         cy="0.12794612"
         r="0.57590270"
         fx="0.19196430"
         fy="0.12457912"
         id="radialGradient1027"
         xlink:href="#linearGradient901" />
    </defs>
  </defs>
  <g
     transform="translate(17.5,240)"
     id="g1252"
     style="font-size:12;">
    <g
       id="g1225">
      <g
         transform="matrix(0.835665,0.000000,0.000000,0.691375,-65.41581,155.3721)"
         id="g969">
        <path
           d="M 698.29830 432.44434 A 32.064716 39.699173 0 1 0 634.16887,432.44434 A 32.064716 39.699173 0 1 0 698.29830 432.44434 z"
           transform="matrix(1.062278,0.000000,0.000000,1.113596,-317.5813,-427.2063)"
           style="fill:url(#radialGradient900);fill-rule:evenodd;stroke-width:1.0000000pt;"
           id="path929" />
        <path
           d="M 308.93750,141.37500 C 292.97294,141.37500 279.65285,155.72061 275.96875,174.96875 C 284.80385,169.24719 294.78629,165.93750 305.37500,165.93750 C 319.25289,165.93750 332.09766,171.53091 342.65625,180.96875 C 340.85030,158.76713 326.51931,141.37500 308.93750,141.37500 z "
           transform="matrix(-1.000000,0.000000,0.000000,1.000000,699.0849,-131.2348)"
           style="fill:#c3c382;fill-rule:evenodd;stroke-width:1.0000000pt;"
           id="path930" />
        <path
           d="M 309.14698 189.34183 A 3.2390256 6.4780512 0 1 0 302.66893,189.34183 A 3.2390256 6.4780512 0 1 0 309.14698 189.34183 z"
           transform="translate(76.11238,-134.8338)"
           style="fill-rule:evenodd;stroke-width:1.0000000pt;"
           id="path931" />
        <path
           d="M 410.71875,19.375000 C 401.31250,23.263140 393.12819,33.980480 390.34375,47.843750 C 386.49763,66.992997 394.34683,84.726655 407.84375,87.437500 C 409.33303,87.736620 410.82366,87.765498 412.31250,87.687500 C 419.53866,79.578930 424.21875,67.736669 424.21875,54.375000 C 424.21875,40.057501 418.85776,27.455916 410.71875,19.375000 z "
           style="fill:url(#radialGradient928);fill-opacity:0.75000000;fill-rule:evenodd;stroke-width:1.0000000pt;"
           id="path968" />
      </g>
      <path
         d="M 432.21902 405.58044 A 87.062523 38.227959 0 1 0 258.09397,405.58044 A 87.062523 38.227959 0 1 0 432.21902 405.58044 z"
         transform="translate(-2.209726,-2.651651)"
         style="fill:url(#radialGradient1147);fill-opacity:0.75000000;fill-rule:evenodd;stroke-width:1.0000000pt;"
         id="path1146" />
      <path
         d="M 313.52167,340.32189 C 313.52167,340.32189 266.18805,351.51909 255.49981,359.66251 C 244.81157,367.80593 236.66815,379.00314 235.14126,390.20033 C 236.15918,400.37961 238.19504,412.08578 246.33846,418.70230 C 254.48188,425.31883 265.17012,437.53396 265.17012,437.53396 C 265.17012,437.53396 244.81156,404.45131 248.88327,390.70929 C 252.95498,376.96727 257.53566,376.45831 268.22390,370.35075 C 278.91214,364.24318 301.30654,368.82386 301.30654,368.82386 L 313.52167,340.32189 z "
         style="fill:#c3c382;fill-rule:evenodd;stroke-width:1.0000000pt;"
         id="path861" />
      <path
         d="M 313.52167,340.32189 C 313.52167,340.32189 266.18805,351.51909 255.49981,359.66251 C 244.81157,367.80593 236.66815,379.00314 235.14126,390.20033 C 236.15918,400.37961 238.19504,412.08578 246.33846,418.70230 C 254.48188,425.31883 265.17012,437.53396 265.17012,437.53396 C 265.17012,437.53396 244.81156,404.45131 248.88327,390.70929 C 252.95498,376.96727 257.53566,376.45831 268.22390,370.35075 C 278.91214,364.24318 301.30654,368.82386 301.30654,368.82386 L 313.52167,340.32189 z "
         style="fill:url(#radialGradient1035);fill-rule:evenodd;stroke-width:1.0000000pt;"
         id="path1034" />
      <path
         d="M 309.70445,171.85489 L 268.47838,192.21344 C 268.47838,192.21344 222.16268,229.87676 219.10890,238.02018 C 216.05512,246.16360 210.96548,258.37873 216.05512,264.48629 C 218.59994,269.06697 224.45302,276.70142 229.54266,277.21039 C 234.63230,279.24624 237.43160,278.73728 237.43160,278.73728 C 237.43160,278.73728 238.95849,291.46137 246.59294,294.51515 C 254.22740,297.56894 276.11284,304.69443 301.05207,295.02412 C 325.99129,285.35381 338.71539,270.08489 338.71539,270.08489 C 338.71539,270.08489 298.50725,308.76614 287.81901,333.19640 C 284.25627,344.39360 280.69352,390.70930 298.50725,407.50511 C 316.32098,424.30091 340.24228,443.13257 389.61176,434.48019 C 438.98125,425.82780 428.29301,414.63060 428.29301,414.63060 C 428.29301,414.63060 455.26809,396.81687 451.70534,376.96728 C 448.14259,357.11769 436.43643,344.39360 423.71233,338.28604 C 410.98824,332.17847 381.97730,329.12469 373.83388,329.12469 C 365.69046,329.12469 355.51119,333.19640 359.07394,328.10676 C 362.63668,323.01712 408.95238,266.52214 405.89860,233.94846 C 402.84482,214.60784 402.33585,184.07002 361.10979,170.32800 C 319.88373,156.58597 309.70445,171.85489 309.70445,171.85489 z "
         style="fill:#c3c382;fill-rule:evenodd;stroke-width:1.0000000pt;"
         id="path860" />
      <path
         d="M 358.19378,328.90356 C 358.19378,328.90356 352.89048,337.96336 353.33242,341.27792 C 353.77436,344.59249 355.76310,359.61851 356.64698,361.60724 C 357.53087,363.59598 369.02135,377.51715 378.30213,373.53967 C 387.58290,369.56220 395.31689,363.37501 397.08465,348.79093 C 398.85242,334.20686 408.35417,337.52142 398.85242,332.88103 C 389.35067,328.24064 359.74058,330.89229 359.74058,330.89229 C 359.74058,330.89229 357.97281,330.67132 358.19378,328.90356 z "
         style="fill:url(#radialGradient1037);fill-opacity:0.75000000;fill-rule:evenodd;stroke-width:1.0000000pt;"
         id="path1036" />
      <path
         d="M 385.00000,329.90625 C 382.19780,333.28207 379.62500,336.55071 379.62500,337.31250 C 379.62499,339.08027 369.67877,348.35961 373.65625,353.00000 C 377.63373,357.64039 369.68750,367.56250 369.68750,367.56250 L 373.87500,373.75000 L 396.18750,378.62500 C 396.18749,378.62499 412.75935,347.46637 421.15625,344.59375 C 424.42657,343.47495 428.60134,343.52408 432.56250,343.84375 C 429.73579,341.62214 426.75886,339.74050 423.71875,338.28125 C 414.57253,333.89106 397.17749,331.14072 385.00000,329.90625 z "
         style="fill:url(#radialGradient1044);fill-rule:evenodd;stroke-width:1.0000000pt;"
         id="path1047" />
      <path
         d="M 333.21358,164.62500 C 330.82888,164.54050 328.67068,164.61350 326.71358,164.78125 C 315.47528,165.74453 311.18028,170.07110 310.15108,171.31250 C 313.50258,173.28375 335.94368,180.18750 337.65108,180.18750 C 339.41878,180.18750 360.27198,179.62944 366.90108,179.18750 C 373.53018,178.74556 377.97168,185.71209 381.83858,186.37500 C 384.11888,186.76592 387.32568,188.11295 389.11988,187.21875 C 382.87148,180.51061 373.98278,174.60015 361.11988,170.31250 C 349.52498,166.44756 340.36778,164.87851 333.21358,164.62500 z M 316.02608,169.87500 C 341.02608,172.37500 336.02608,178.00000 335.71358,176.43750 C 335.40108,174.87500 316.02608,169.87500 316.02608,169.87500 z M 392.33858,191.06250 C 389.18328,193.77972 385.84298,196.76822 385.58858,197.53125 C 385.14668,198.85707 385.24488,202.28125 385.24488,202.28125 C 385.24488,202.28125 386.48018,207.80481 386.36988,210.12500 C 386.25938,212.44520 387.47708,213.87500 389.24488,213.87500 C 391.01258,213.87501 397.85548,221.95526 400.83858,220.18750 C 401.57698,219.74994 402.52578,218.77629 403.43238,218.00000 C 401.73658,209.12787 398.84918,199.62152 392.33858,191.06250 z M 384.30738,223.03125 C 383.65818,222.48918 382.50898,222.97416 380.71358,225.15625 C 373.53198,233.88460 363.93208,233.65624 363.93238,233.65625 C 363.93238,233.65625 362.16778,240.72335 362.05738,243.37500 C 361.94688,246.02665 363.36878,246.91189 365.02608,247.90625 C 366.68328,248.90062 377.85208,246.81131 379.61988,245.37500 C 381.38758,243.93869 380.61658,238.75325 382.49488,236.87500 C 383.90348,235.46631 386.25468,224.65746 384.30738,223.03125 z M 404.68238,225.96875 C 402.59958,226.78518 400.80128,227.88476 401.83858,229.03125 C 402.61448,229.88886 404.14918,230.87671 405.55738,231.78125 C 405.29378,229.97839 404.95938,227.91717 404.68238,225.96875 z M 379.77608,231.75000 C 381.33858,229.56250 368.83858,251.75000 366.96358,238.31250 C 366.96358,238.31250 378.21358,233.93750 379.77608,231.75000 z M 400.61988,236.96875 C 397.52618,236.96875 393.08828,248.03631 389.99488,259.96875 C 387.63248,269.08076 391.17128,275.03823 392.99488,277.37500 C 400.09398,264.01312 405.50988,250.19018 405.93238,238.59375 C 404.27348,237.52791 402.17868,236.96874 400.61988,236.96875 z M 400.96358,245.09375 C 401.97918,245.25000 402.90108,245.81250 402.90108,245.81250 C 400.40108,253.62500 396.02608,267.06250 395.08858,268.31250 C 394.15108,269.56250 394.15108,264.87500 395.71358,262.06250 C 397.27608,259.25000 397.90108,249.87500 398.52608,246.75000 C 398.83858,245.18750 399.94798,244.93750 400.96358,245.09375 z M 380.30738,255.50000 C 373.60658,255.88066 363.31118,266.02371 362.15108,271.43750 C 360.82528,277.62468 373.66908,273.64720 381.18238,271.43750 C 388.69538,269.22779 382.93238,255.96875 382.93238,255.96875 C 382.15898,255.58205 381.26458,255.44562 380.30738,255.50000 z M 352.74488,276.25000 C 344.75108,275.31951 340.02608,285.81249 340.02608,285.81250 C 340.02608,285.81250 332.06588,295.52251 328.08858,299.50000 C 324.11108,303.47748 332.95048,307.45988 337.36988,308.34375 C 341.78928,309.22764 357.26268,305.24571 358.58858,308.78125 C 359.91448,312.31678 358.13768,318.51809 362.55738,322.93750 C 362.65738,323.03757 362.76798,323.01196 362.86988,323.09375 C 365.71968,319.37092 369.32378,314.62679 374.93238,306.56250 C 375.17548,303.11458 373.95318,299.94980 371.83858,298.18750 C 369.18688,295.97780 358.58378,303.93289 355.93238,301.28125 C 353.28058,298.62960 366.98128,289.33456 365.21358,284.03125 C 363.44578,278.72795 366.53418,282.70955 356.36988,277.40625 C 355.09928,276.74334 353.88678,276.38293 352.74488,276.25000 z M 382.90108,281.37500 C 378.03978,281.37500 374.05728,284.90213 374.05738,291.53125 C 374.05738,295.56812 377.08808,298.14291 379.52608,299.65625 C 380.65488,297.95320 381.76448,296.25584 382.90108,294.46875 C 381.42938,292.02447 379.72438,288.74066 381.65108,288.31250 C 383.14528,287.98046 384.47378,289.15624 385.46358,290.40625 C 386.34538,288.96833 387.16088,287.44051 388.02608,285.96875 C 386.62038,283.55853 384.92168,281.37500 382.90108,281.37500 z M 348.21358,286.12500 C 351.33858,285.81250 355.08858,288.62500 351.02608,291.75000 C 346.96358,294.87500 340.71358,298.62500 340.71358,298.62500 C 340.71358,298.62500 345.08858,286.43750 348.21358,286.12500 z M 367.55738,309.09375 C 367.75388,309.05103 367.97918,309.09375 368.21358,309.25000 C 370.08858,310.50000 365.71358,313.93750 365.71358,313.93750 C 365.71358,313.93750 366.18138,309.39282 367.55738,309.09375 z M 325.80738,310.78125 C 319.70628,311.58875 315.40108,322.37500 315.40108,322.37500 C 315.40108,322.37500 304.46358,332.37500 302.90108,337.68750 C 301.33858,343.00000 303.21358,369.25000 304.77608,376.43750 C 306.33858,383.62500 312.27608,386.75000 323.21358,387.06250 C 334.15108,387.37500 328.21358,379.56250 326.65108,369.25000 C 325.08858,358.93750 334.15108,340.18750 336.65108,332.68750 C 339.15108,325.18750 336.02608,313.93750 328.52608,311.12500 C 327.58858,310.77344 326.67858,310.66589 325.80738,310.78125 z M 345.15108,314.96875 C 340.51068,315.41069 343.93208,328.68749 343.93238,328.68750 C 347.13638,336.42149 351.98828,327.90373 355.74488,321.93750 C 359.50128,315.97129 349.79148,314.52681 345.15108,314.96875 z M 348.86988,320.56250 C 349.92448,320.25000 351.02608,320.81250 351.02608,320.81250 L 346.96358,325.50000 C 346.80738,322.06250 347.81518,320.87500 348.86988,320.56250 z M 322.77608,330.75000 C 326.45038,332.57007 326.88548,347.37500 313.21358,360.50000 C 313.21358,360.50000 310.71358,349.25000 312.27608,343.31250 C 313.83858,337.37500 316.02608,333.31250 321.02608,330.81250 C 321.65108,330.50000 322.25118,330.48999 322.77608,330.75000 z M 417.96358,336.06250 C 417.93558,336.18759 417.83858,336.25894 417.83858,336.40625 C 417.83858,339.94179 432.42318,350.56234 433.30738,347.46875 C 433.52438,346.70896 433.55678,345.69705 433.68238,344.78125 C 430.52238,342.14036 427.16478,339.93781 423.71358,338.28125 C 422.05598,337.48559 420.09178,336.75436 417.96358,336.06250 z M 408.24488,337.78125 C 403.46548,338.41568 399.71358,349.21874 399.71358,349.21875 C 399.71358,349.21875 392.20918,371.78554 395.74488,368.25000 C 399.28048,364.71446 407.24958,357.63358 412.99488,350.56250 C 418.74018,343.49143 416.08378,341.28109 410.33858,338.18750 C 409.62038,337.80080 408.92728,337.69062 408.24488,337.78125 z M 344.33858,337.84375 C 343.70868,337.86490 343.08858,337.96653 342.49488,338.18750 C 337.74398,339.95527 334.97808,346.37071 335.08858,349.90625 C 335.19908,353.44179 329.36118,368.24913 333.33858,373.00000 C 337.31598,377.75088 357.96268,399.95939 362.71358,391.56250 C 367.46438,383.16560 366.24478,379.40625 366.24488,379.40625 C 366.24478,379.40626 359.48028,372.15192 356.65108,361.43750 C 356.65108,361.43750 356.65118,361.37552 356.65108,361.37500 C 356.62088,361.25992 356.55538,361.17838 356.52608,361.06250 C 354.97998,354.93990 354.32478,350.16022 353.99488,346.68750 C 354.02208,348.98291 356.21678,359.33999 356.49488,360.65625 L 356.49488,360.50000 L 356.52608,360.68750 C 356.56748,360.76302 357.61598,362.66929 358.99488,361.75000 C 360.40108,360.81250 364.46358,351.12500 364.15108,346.43750 C 363.83858,341.75000 353.99458,344.25000 353.99488,346.59375 C 353.74908,343.95770 353.65108,341.84375 353.65108,341.84375 C 353.65108,341.84375 348.74788,337.69572 344.33858,337.84375 z M 356.52608,360.68750 C 356.52528,360.68600 356.49458,360.65625 356.49488,360.65625 C 356.51118,360.73360 356.64978,361.36874 356.65108,361.37500 L 356.52608,360.68750 z M 286.08858,342.68750 C 285.87236,344.40012 285.62943,345.97620 285.46358,347.93750 C 273.19867,351.59139 260.41753,355.90562 255.49483,359.65625 C 255.11559,359.94520 254.80495,360.29727 254.43233,360.59375 C 255.80617,361.47071 257.41572,362.20280 258.96358,362.71875 C 262.94105,364.04457 289.02609,347.90626 289.02608,347.90625 C 289.02608,347.90625 291.01256,345.48873 289.24483,343.50000 C 288.85005,343.05588 287.64226,342.82260 286.08858,342.68750 z M 348.05738,354.71875 C 348.88728,354.76270 349.46358,354.87500 349.46358,354.87500 C 341.65108,361.43750 356.96358,380.18750 352.90108,380.81250 C 348.83858,381.43750 342.90108,366.43750 341.65108,359.87500 C 340.71358,354.95313 345.56708,354.58691 348.05738,354.71875 z M 417.86988,355.12500 C 416.84098,355.09738 415.73908,355.18528 414.74488,355.40625 C 410.76738,356.29013 403.69558,373.10280 402.36988,375.31250 C 402.36988,375.31250 420.50818,364.26317 422.27608,359.84375 C 423.60188,356.52919 420.95648,355.20786 417.86988,355.12500 z M 286.77608,357.28125 C 282.33509,357.15134 273.18019,361.51770 269.11983,364.03125 C 266.98128,365.35512 267.76267,367.75842 269.11983,369.96875 C 273.50506,367.80489 279.46155,367.16669 285.11983,367.21875 C 285.22200,369.22076 285.51391,371.23633 285.71358,373.25000 C 285.98831,373.29746 286.33279,373.24274 286.58858,373.31250 C 291.44998,374.63833 291.68438,359.39278 288.36983,357.62500 C 287.95551,357.40403 287.41051,357.29981 286.77608,357.28125 z M 444.80738,357.90625 C 443.92238,358.26201 443.24158,358.87399 443.02608,359.84375 C 442.31108,363.06128 447.65708,378.78674 451.83858,383.12500 C 452.07158,381.10299 452.08788,379.05413 451.71358,376.96875 C 450.39958,369.64792 447.98048,363.31520 444.80738,357.90625 z M 260.46358,368.18750 C 260.03761,368.19354 259.59665,368.35604 259.18233,368.68750 C 255.86775,371.33915 245.93900,379.27474 245.27608,383.03125 C 244.61320,386.78776 245.49943,401.37500 248.15108,401.37500 C 248.55903,401.37500 248.88922,401.44279 249.27608,401.50000 C 248.39952,397.41685 248.01869,393.59135 248.86983,390.71875 C 252.45414,378.62167 256.67693,376.59343 264.86983,372.15625 C 263.70312,370.20585 262.18088,368.16314 260.46358,368.18750 z M 245.80733,369.00000 C 241.97072,373.46614 238.81216,378.27279 236.96358,383.28125 C 239.33836,380.53289 242.20242,375.95052 243.71358,374.18750 C 244.72937,373.00241 245.34068,371.00710 245.80733,369.00000 z M 425.24488,370.03125 C 419.87938,370.77703 409.33498,376.73563 405.02608,379.71875 C 399.28078,383.69622 402.80728,388.12500 402.80738,388.12500 C 402.80738,388.12500 410.34358,389.46416 422.27608,386.81250 C 434.20848,384.16085 429.34748,376.20511 428.46358,371.34375 C 428.24258,370.12841 427.03328,369.78266 425.24488,370.03125 z M 437.90108,376.43750 C 434.77608,377.06250 442.90108,386.75000 436.65108,390.81250 C 430.40108,394.87500 429.77608,395.81250 426.65108,395.81250 C 423.52608,395.81250 411.02608,395.18750 404.46358,400.18750 C 397.90108,405.18750 404.46358,413.00000 405.40108,415.18750 C 406.33858,417.37500 410.71358,422.68750 410.71358,422.68750 C 410.71358,422.68750 418.21358,422.06250 425.71358,421.75000 C 426.28168,421.72633 426.89548,421.46523 427.49488,421.28125 C 430.94168,417.42250 428.30738,414.62500 428.30738,414.62500 C 428.30738,414.62499 441.02518,406.02373 447.80738,394.21875 C 447.52088,392.26122 447.27608,390.03377 447.27608,387.06250 C 447.27608,377.68750 441.02608,375.81250 437.90108,376.43750 z M 419.99488,377.93750 C 423.61108,378.12061 424.46358,381.43750 424.46358,381.43750 L 410.08858,382.37500 C 414.65888,378.85938 417.82508,377.82764 419.99488,377.93750 z M 389.11988,383.71875 L 378.08858,385.46875 L 365.24488,397.84375 C 367.45448,402.26316 386.46828,393.85691 392.21358,389.43750 C 397.95878,385.01809 389.11958,383.71876 389.11988,383.71875 z M 326.40108,392.62500 C 324.50658,392.69824 322.51048,392.92187 320.40108,393.31250 C 311.96358,394.87500 316.33858,399.87500 316.33858,404.56250 C 319.46358,410.18750 338.83858,421.43750 351.02608,424.56250 C 363.21358,427.68750 391.02608,426.43750 395.71358,425.81250 C 400.40108,425.18750 398.21358,421.12500 398.21358,417.06250 C 398.21358,413.00000 392.27608,404.25000 389.46358,401.12500 C 386.65108,398.00000 383.21358,399.25000 375.40108,402.06250 C 367.58858,404.87500 350.08858,396.75000 350.08858,396.75000 C 350.08858,396.75000 343.83858,393.31250 339.77608,393.31250 C 336.72918,393.31250 332.08468,392.40527 326.40108,392.62500 z M 338.18238,401.09375 C 340.33718,401.00014 342.47088,401.01880 344.33858,401.12500 C 346.82878,401.26660 348.83858,401.59375 349.77608,402.06250 C 353.52608,403.93750 369.15108,410.81250 373.83858,409.25000 C 378.52608,407.68750 384.15108,405.50000 385.08858,409.56250 C 386.02608,413.62500 387.27608,421.75000 381.96358,419.87500 C 376.65108,418.00000 340.40108,414.87500 334.46358,409.25000 C 334.46358,409.25000 325.08858,408.93750 325.08858,404.87500 C 325.08858,402.58984 331.71758,401.37459 338.18238,401.09375 z M 240.86983,405.31250 C 240.08722,405.48091 239.28492,406.09786 238.52608,406.81250 C 240.18094,411.40923 242.56243,415.61938 246.33858,418.68750 C 248.50429,420.44714 250.81054,422.62597 253.08858,424.84375 C 253.07264,424.11759 253.01791,423.50690 253.21358,422.59375 C 253.87650,419.50016 245.48798,410.66721 243.05733,406.46875 C 242.44966,405.41914 241.68811,405.13641 240.86983,405.31250 z "
         style="fill:#003030;fill-opacity:0.40784314;fill-rule:evenodd;stroke-width:1.0000000pt;"
         id="path1136" />
      <path
         d="M 365.65613,185.52652 C 365.09810,185.52652 364.58103,185.67340 364.03113,185.71402 C 376.40969,186.72884 386.18738,197.01270 386.18738,209.65152 C 386.18738,222.96176 375.37262,233.74527 362.06238,233.74527 C 361.15708,233.74527 360.28544,233.62384 359.40613,233.52652 C 358.15698,236.53608 356.69604,239.56856 354.84363,242.49527 C 353.39494,244.78413 351.83554,246.80375 350.21863,248.71402 C 354.63347,252.42693 359.92854,254.62027 365.65613,254.62027 C 380.95297,254.62027 393.37489,239.16040 393.37488,220.08902 C 393.37488,201.01764 380.95298,185.52652 365.65613,185.52652 z "
         style="fill:url(#radialGradient937);fill-opacity:0.75000000;fill-rule:evenodd;stroke-width:1.0000000pt;"
         id="path1011" />
      <g
         id="g986">
        <path
           d="M 382.23177 190.68654 A 30.283344 39.190208 0 1 0 321.66508,190.68654 A 30.283344 39.190208 0 1 0 382.23177 190.68654 z"
           transform="matrix(1.073534,0.407300,-0.395540,1.042535,9.081507,-147.1336)"
           style="fill:url(#radialGradient930);fill-opacity:0.75000000;fill-rule:evenodd;stroke-width:1.0000000pt;"
           id="path974" />
        <g
           transform="translate(-6.837943,8.637401)"
           id="g924">
          <path
             d="M 698.29830 432.44434 A 32.064716 39.699173 0 1 0 634.16887,432.44434 A 32.064716 39.699173 0 1 0 698.29830 432.44434 z"
             transform="matrix(1.062278,0.000000,0.000000,1.113596,-398.7843,-295.9715)"
             style="fill:url(#radialGradient900);fill-rule:evenodd;stroke-width:1.0000000pt;"
             id="path890" />
          <path
             d="M 308.93750,141.37500 C 292.97294,141.37500 279.65285,155.72061 275.96875,174.96875 C 284.80385,169.24719 294.78629,165.93750 305.37500,165.93750 C 319.25289,165.93750 332.09766,171.53091 342.65625,180.96875 C 340.85030,158.76713 326.51931,141.37500 308.93750,141.37500 z "
             style="fill:#c3c382;fill-rule:evenodd;stroke-width:1.0000000pt;"
             id="path917" />
          <path
             d="M 309.14698 189.34183 A 3.2390256 6.4780512 0 1 0 302.66893,189.34183 A 3.2390256 6.4780512 0 1 0 309.14698 189.34183 z"
             style="fill-rule:evenodd;stroke-width:1.0000000pt;"
             id="path923" />
        </g>
      </g>
      <path
         d="M 357.37500,233.18750 C 350.68653,244.51457 350.19757,244.08748 321.75000,267.43750 C 290.43942,287.95133 264.53124,283.62501 264.53125,283.62500 L 242.93750,280.03125 L 246.53125,285.06250 C 246.53125,285.06250 283.58742,305.23193 320.65625,274.28125 C 351.75466,251.62585 358.33629,238.97685 359.25000,233.37500 C 358.63083,233.30061 357.97833,233.30801 357.37500,233.18750 z "
         style="fill:#a27575;fill-rule:evenodd;stroke-width:1.0000000pt;"
         id="path1023" />
      <path
         d="M 364.03125,233.46875 C 363.84186,233.48391 363.65938,233.52051 363.46875,233.53125 C 362.00157,238.01172 354.79328,250.15428 348.87500,257.40625 C 342.67251,265.00647 333.52336,275.53723 323.71875,284.75000 C 311.01768,298.23851 294.43200,318.05722 287.81250,333.18750 C 284.24977,344.38469 280.68627,390.70419 298.50000,407.50000 C 316.31372,424.29581 340.25552,443.12113 389.62500,434.46875 C 438.99449,425.81636 428.28125,414.62500 428.28125,414.62500 C 428.28125,414.62500 430.34390,413.20247 433.18750,410.87500 C 422.98662,416.29588 407.54885,421.84281 383.75000,424.31250 C 329.79984,429.91110 303.34811,392.24785 304.87500,358.65625 C 306.40189,325.06464 345.07072,286.89390 355.25000,271.62500 C 362.10117,261.34825 365.05041,241.04862 364.03125,233.46875 z "
         style="fill:#e3d694;fill-rule:evenodd;stroke-width:1.0000000pt;"
         id="path1024" />
      <path
         d="M 237.55883,278.61003 L 265.42460,283.82691 C 265.42460,283.82691 278.27593,285.09932 289.98210,281.40933 C 301.68827,277.71934 311.35858,276.95590 330.82644,260.03285 C 350.29431,243.10981 352.45740,241.71016 354.49326,237.89293 C 356.52911,234.07570 357.16532,233.18501 357.16532,233.18501 L 359.58290,233.56674 C 359.58290,233.56674 360.21910,233.69398 361.23703,233.69398 C 362.25495,233.69398 363.01840,233.69398 363.01840,233.69398 C 363.01840,233.69398 360.09186,240.81947 359.32841,242.09188 C 358.56497,243.36429 346.60432,261.30526 340.49675,267.28559 C 334.38919,273.26591 329.80852,278.73727 328.02714,279.88244 C 326.24577,281.02761 316.44822,287.89862 313.26719,289.42551 C 310.08617,290.95240 294.30829,298.84134 285.27419,298.96858 C 276.24008,299.09582 267.58770,300.49547 254.22740,296.80549 C 237.68607,293.24273 237.55883,278.61003 237.55883,278.61003 z "
         style="fill:url(#radialGradient949);fill-rule:evenodd;stroke-width:1.0000000pt;"
         id="path1025" />
      <path
         d="M 237.55883,278.61003 L 265.42460,283.82691 C 265.42460,283.82691 278.27593,285.09932 289.98210,281.40933 C 301.68827,277.71934 311.35858,276.95590 330.82644,260.03285 C 350.29431,243.10981 352.45740,241.71016 354.49326,237.89293 C 356.52911,234.07570 357.16532,233.18501 357.16532,233.18501 L 359.58290,233.56674 C 359.58290,233.56674 360.21910,233.69398 361.23703,233.69398 C 362.25495,233.69398 363.01840,233.69398 363.01840,233.69398 C 363.01840,233.69398 360.09186,240.81947 359.32841,242.09188 C 358.56497,243.36429 346.60432,261.30526 340.49675,267.28559 C 334.38919,273.26591 329.80852,278.73727 328.02714,279.88244 C 326.24577,281.02761 316.44822,287.89862 313.26719,289.42551 C 310.08617,290.95240 294.30829,298.84134 285.27419,298.96858 C 276.24008,299.09582 267.58770,300.49547 254.22740,296.80549 C 237.68607,293.24273 237.55883,278.61003 237.55883,278.61003 z "
         style="fill:url(#radialGradient943);fill-rule:evenodd;stroke-width:1.0000000pt;"
         id="path1026" />
      <path
         d="M 268.42179,283.67977 C 268.42179,283.67977 262.86579,291.13778 262.46893,296.35839 C 262.07207,301.57900 264.35401,305.62764 266.63593,307.01270 C 268.91786,308.39776 272.09271,310.63516 273.38250,310.63516 C 274.67229,310.63516 265.14771,310.52862 262.66737,309.25010 C 260.18701,307.97158 258.00429,305.30801 257.90507,303.28369 C 257.80586,301.25937 257.40901,300.51357 257.40901,300.51357 C 257.40901,300.51357 258.40114,303.92295 257.21057,304.88184 C 256.02001,305.84072 250.36479,312.02022 247.28916,312.12676 C 244.21351,312.23330 240.34415,312.02022 240.34415,312.02022 C 240.34415,312.02022 247.58679,309.35665 250.66244,304.02949 C 253.73808,298.70233 259.39329,282.72087 259.39329,282.72087 C 259.39329,282.72087 266.04065,284.31902 268.42179,283.67977 z "
         style="fill:url(#radialGradient1028);fill-rule:evenodd;stroke-width:0.83007774pt;"
         id="path1027" />
      <path
         d="M 268.42179,283.67977 C 268.42179,283.67977 262.86579,291.13778 262.46893,296.35839 C 262.07207,301.57900 264.35401,305.62764 266.63593,307.01270 C 268.91786,308.39776 272.09271,310.63516 273.38250,310.63516 C 274.67229,310.63516 265.14771,310.52862 262.66737,309.25010 C 260.18701,307.97158 258.00429,305.30801 257.90507,303.28369 C 257.80586,301.25937 257.40901,300.51357 257.40901,300.51357 C 257.40901,300.51357 258.40114,303.92295 257.21057,304.88184 C 256.02001,305.84072 250.36479,312.02022 247.28916,312.12676 C 244.21351,312.23330 240.34415,312.02022 240.34415,312.02022 C 240.34415,312.02022 247.58679,309.35665 250.66244,304.02949 C 253.73808,298.70233 259.39329,282.72087 259.39329,282.72087 C 259.39329,282.72087 266.04065,284.31902 268.42179,283.67977 z "
         style="fill:url(#radialGradient1033);fill-rule:evenodd;stroke-width:0.83007774pt;"
         id="path1032" />
      <path
         d="M 377.50000,189.87500 C 377.50000,189.87500 378.12500,196.75000 378.12500,202.37500 C 378.12500,208.00000 380.62500,206.75000 372.50000,218.00000 C 364.37500,229.25000 340.62500,218.00000 340.62500,218.00000 C 340.62500,218.00000 351.87500,227.37500 348.75000,231.12500 C 345.62500,234.87500 295.62500,253.00000 282.50000,255.50000 C 269.37500,258.00000 239.37500,259.87500 228.75000,253.62500 C 221.02128,249.07870 221.92040,238.37882 222.96875,232.81250 C 221.02164,234.99073 219.53083,236.86570 219.09375,238.03125 C 216.03997,246.17466 210.97286,258.39244 216.06250,264.50000 C 218.60733,269.08067 224.44161,276.70978 229.53125,277.21875 C 234.62089,279.25460 237.43750,278.75000 237.43750,278.75000 C 237.43751,278.75001 238.95930,291.44622 246.59375,294.50000 C 254.22821,297.55380 276.12327,304.70156 301.06250,295.03125 C 318.37138,288.31965 329.37921,279.16014 334.75000,274.03125 C 325.67622,283.04396 296.85589,312.51690 287.81250,333.18750 C 286.88716,336.09573 285.98831,341.42369 285.43750,347.93750 C 285.07049,348.04686 284.74269,348.17073 284.37500,348.28125 L 284.37500,356.75000 C 284.37500,356.75000 258.75000,366.12500 250.00000,373.62500 C 241.25000,381.12500 243.75000,391.75000 243.12500,397.37500 C 242.50000,403.00000 263.12500,434.25000 263.12500,434.25000 C 263.12500,434.25000 263.00276,433.85425 263.00000,433.84375 C 258.30333,425.71493 245.50265,402.10042 248.87500,390.71875 C 252.94671,376.97673 257.53051,376.45131 268.21875,370.34375 C 270.99801,368.75561 274.59027,368.05350 278.34375,367.65625 C 279.05056,367.18994 280.62500,366.12500 280.62500,366.12500 C 280.62500,366.12500 280.89278,367.42068 280.90625,367.50000 C 282.32391,367.42223 283.71991,367.20541 285.12500,367.21875 C 285.83696,381.17006 288.79672,395.81594 296.12500,404.84375 C 295.92057,403.84460 293.12500,389.97297 293.12500,375.50000 C 293.12500,360.50000 299.37500,338.00000 306.25000,323.62500 C 313.12500,309.25000 349.37500,283.62500 353.75000,272.37500 C 358.12500,261.12500 388.12500,211.12500 388.12500,211.12500 L 377.50000,189.87500 z M 401.37500,209.50000 C 400.94557,220.55569 400.02213,237.75819 396.87500,246.75000 C 392.50000,259.25000 341.25000,326.75000 340.62500,338.00000 C 340.00000,349.25000 328.75000,374.87500 342.50000,383.00000 C 356.25000,391.12500 395.62500,384.87500 395.62500,384.87500 C 395.62500,384.87500 429.37500,363.62500 429.37500,356.12500 C 429.37500,348.62500 412.50000,335.50000 402.50000,335.50000 C 392.50000,335.50000 357.50000,334.25000 357.50000,334.25000 L 355.62500,332.37500 L 358.37500,329.68750 C 358.38176,329.29829 358.56828,328.79978 359.06250,328.09375 C 362.62524,323.00412 408.96003,266.51118 405.90625,233.93750 C 404.78524,226.83777 403.94890,218.23352 401.37500,209.50000 z M 446.50000,361.21875 C 445.87850,372.15354 443.76216,387.87014 435.62500,391.12500 C 423.12500,396.12500 403.12500,421.12500 392.50000,421.12500 C 381.87500,421.12500 352.50000,434.25000 335.00000,429.25000 C 330.81474,428.05421 327.34403,427.26860 323.34375,426.25000 C 338.91909,434.73083 359.49516,439.74923 389.62500,434.46875 C 438.99449,425.81636 428.28125,414.62500 428.28125,414.62500 C 428.28126,414.62498 455.28150,396.81834 451.71875,376.96875 C 450.65950,371.06722 448.81252,365.87472 446.50000,361.21875 z "
         style="fill-opacity:0.034482721;fill-rule:evenodd;stroke-width:1.0000000pt;"
         id="path1145" />
    </g>
    <g
       id="g1221">
      <path
         d="M 413.09375,165.00000 L 400.78125,207.68750 C 403.81028,217.03689 404.70764,226.34630 405.90625,233.93750 C 408.12237,257.57608 385.00090,292.73598 370.46875,312.71875 L 356.62500,360.62500 C 358.85333,371.23680 364.54243,384.32673 378.65625,382.56250 C 385.43600,381.71503 391.36853,380.54900 396.71875,379.34375 L 458.31250,165.00000 L 413.09375,165.00000 z M 222.50000,212.84375 L 79.281250,272.56250 L 79.281250,302.71875 L 222.50000,362.46875 L 222.50000,323.03125 L 134.68750,287.71875 L 213.96875,255.56250 C 214.48565,249.78309 217.18840,243.11217 219.09375,238.03125 C 219.50171,236.94337 220.76129,235.26279 222.50000,233.28125 L 222.50000,212.84375 z M 469.62500,212.84375 L 469.62500,252.25000 L 557.25000,287.62500 L 469.62500,323.18750 L 469.62500,362.46875 L 612.84375,302.71875 L 612.84375,272.25000 L 469.62500,212.84375 z "
         style="font-size:36.000000;fill:#6f6f6f;stroke-width:1.0000000pt;font-family:Impact;"
         id="path884" />
      <path
         d="M 405.68750,230.34375 C 405.68750,230.34375 405.44555,230.79782 405.43750,230.81250 C 405.58302,231.81438 405.75606,232.98627 405.90625,233.93750 C 405.84272,233.16618 405.68750,230.34375 405.68750,230.34375 z M 405.90625,233.93750 C 408.12237,257.57608 385.00090,292.73598 370.46875,312.71875 L 357.93750,356.03125 L 360.18750,363.37500 C 360.18750,363.37500 362.38863,358.77649 367.25000,353.03125 C 360.86135,341.66101 381.05378,317.48066 395.34375,287.68750 C 402.65884,273.18399 406.27039,238.35876 405.90625,233.93750 z "
         style="font-size:36.000000;fill:url(#radialGradient1150);stroke-width:1.0000000pt;font-family:Impact;"
         id="path1156" />
      <path
         d="M 379.06250,331.12500 C 373.69108,331.12500 368.66520,332.45414 364.12500,334.65625 L 356.62500,360.62500 C 358.85333,371.23680 364.54243,384.32673 378.65625,382.56250 C 385.43600,381.71503 391.36853,380.54900 396.71875,379.34375 L 406.56250,345.03125 C 400.22424,336.63528 390.32213,331.12500 379.06250,331.12500 z "
         style="font-size:36.000000;fill:url(#radialGradient1159);stroke-width:1.0000000pt;font-family:Impact;"
         id="path1158" />
    </g>
  </g>
</svg>
